<svg width="32" height="32" viewBox="0 0 32 32" fill="none" xmlns="http://www.w3.org/2000/svg">
<path d="M5.33334 25C4.95556 25 4.63867 24.856 4.38267 24.568C4.12667 24.28 3.99912 23.924 4 23.5C4 23.075 4.128 22.7185 4.384 22.4305C4.64 22.1425 4.95645 21.999 5.33334 22H26.6667C27.0444 22 27.3613 22.144 27.6173 22.432C27.8733 22.72 28.0009 23.076 28 23.5C28 23.925 27.872 24.2815 27.616 24.5695C27.36 24.8575 27.0436 25.001 26.6667 25H5.33334ZM5.33334 17.5C4.95556 17.5 4.63867 17.356 4.38267 17.068C4.12667 16.78 3.99912 16.424 4 16C4 15.575 4.128 15.2185 4.384 14.9305C4.64 14.6425 4.95645 14.499 5.33334 14.5H26.6667C27.0444 14.5 27.3613 14.644 27.6173 14.932C27.8733 15.22 28.0009 15.576 28 16C28 16.425 27.872 16.7815 27.616 17.0695C27.36 17.3575 27.0436 17.501 26.6667 17.5H5.33334ZM5.33334 10C4.95556 10 4.63867 9.856 4.38267 9.568C4.12667 9.28 3.99912 8.924 4 8.5C4 8.075 4.128 7.71851 4.384 7.43051C4.64 7.14251 4.95645 6.99901 5.33334 7.00001H26.6667C27.0444 7.00001 27.3613 7.14401 27.6173 7.43201C27.8733 7.72 28.0009 8.076 28 8.5C28 8.925 27.872 9.2815 27.616 9.5695C27.36 9.8575 27.0436 10.001 26.6667 10H5.33334Z" fill="#1A4078"/>
</svg>
