<svg width="61" height="61" viewBox="0 0 61 61" fill="none" xmlns="http://www.w3.org/2000/svg">
<path fill-rule="evenodd" clip-rule="evenodd" d="M44.549 36.5179C43.801 36.1437 40.1235 34.3346 39.4377 34.0851C38.7521 33.8356 38.2536 33.7108 37.7549 34.4594C37.2563 35.208 35.8228 36.8922 35.3864 37.3913C34.9501 37.8903 34.5139 37.9528 33.7659 37.5784C33.0179 37.2043 30.6078 36.4146 27.7508 33.867C25.5272 31.8844 24.026 29.4355 23.5896 28.6869C23.1533 27.9383 23.5431 27.5337 23.9177 27.1608C24.254 26.8259 24.6656 26.2876 25.0396 25.8509C25.4136 25.4142 25.5382 25.1023 25.7876 24.6033C26.0369 24.1042 25.9122 23.6675 25.7252 23.2933C25.5382 22.919 24.0424 19.2385 23.419 17.7413C22.8119 16.2833 22.1952 16.4805 21.7361 16.4577C21.3003 16.436 20.8012 16.4314 20.3025 16.4314C19.8038 16.4314 18.9936 16.6186 18.3078 17.367C17.6222 18.1156 15.6899 19.9248 15.6899 23.6051C15.6899 27.2856 18.3702 30.8413 18.7442 31.3404C19.1182 31.8395 24.0187 39.3923 31.522 42.6313C33.3066 43.4017 34.6999 43.8617 35.7861 44.2065C37.5781 44.7755 39.2087 44.6952 40.4975 44.5027C41.9345 44.288 44.923 42.6937 45.5463 40.947C46.1695 39.2004 46.1695 37.7032 45.9826 37.3913C45.7956 37.0795 45.297 36.8922 44.549 36.5179ZM30.9011 55.1468H30.8911C26.4263 55.145 22.0473 53.9461 18.2272 51.6798L17.3185 51.1406L7.90147 53.6102L10.4151 44.4315L9.82339 43.4905C7.33277 39.5302 6.01736 34.9529 6.01923 30.2531C6.0247 16.5388 17.1865 5.38124 30.9111 5.38124C37.5568 5.38382 43.804 7.97452 48.5017 12.6759C53.1994 17.3775 55.785 23.627 55.7825 30.2732C55.7768 43.9885 44.6151 55.1468 30.9011 55.1468ZM52.0767 9.10341C46.4248 3.44678 38.9085 0.330093 30.9005 0.326931C14.4003 0.326931 0.971176 13.7509 0.964562 30.2512C0.962405 35.5256 2.34079 40.6742 4.9604 45.2123L0.713501 60.72L16.583 56.5586C20.9554 58.9427 25.8782 60.199 30.8885 60.2012H30.9007H30.9009C47.3994 60.2012 60.8297 46.7755 60.8365 30.2751C60.8395 22.2788 57.7287 14.7599 52.0767 9.10341Z" fill="white"/>
</svg>
